<?xml version="1.0" encoding="utf-8"?>
<!-- Generator: Adobe Illustrator 16.0.2, SVG Export Plug-In . SVG Version: 6.00 Build 0)  -->
<!DOCTYPE svg PUBLIC "-//W3C//DTD SVG 1.1//EN" "http://www.w3.org/Graphics/SVG/1.1/DTD/svg11.dtd">
<svg version="1.1" id="Capa_1" xmlns="http://www.w3.org/2000/svg" xmlns:xlink="http://www.w3.org/1999/xlink" x="0px" y="0px"
	 width="960px" height="560px" viewBox="0 0 960 560" enable-background="new 0 0 960 560" xml:space="preserve">
<g>
	<g>
		<path d="M451.348,258.766c0,0-10.41,15.16-3.392,15.16c0,0-1.137,10.414,1.804,16.297c2.945,5.887,7.812,13.92,5.209,16.519
			c-2.605,2.604-2.491,8.148-2.491,8.148s-7.019,22.18-0.454,34.628c0,0-6.339,0.114-9.05,1.925c0,0-3.623-0.457-3.623,2.033
			c0,2.488,0.116,6.109,2.377,9.62c2.264,3.502,4.637,8.378,4.637,10.521c0,2.15,2.042,7.131,4.188,8.146
			c2.152,1.022,7.979-1.411,9.622-3.054c1.638-1.64,1.81-3.622,1.81-3.622s1.127,23.31,3.617,27.043
			c2.492,3.736-0.11,3.736-0.11,3.736l0.905,0.569c0,0,0.34,12.329-2.034,12.329c-2.378,0-10.864,3.396-11.885,4.413v1.131
			c0,0-7.921-1.917-10.633-0.115c-2.718,1.816-4.305,5.773-7.812,6.904c-3.506,1.137-17.651,6.795-17.651,6.795s1.362-2.044,0-1.028
			c-1.36,1.028-13.579,5.1-15.275,5.1c0,0-1.583-1.811-3.845-1.811c-2.263,0-2.263-1.021-4.244-1.98
			c-1.98-0.964-7.867-5.83-11.604-3.678c-3.733,2.148-7.239,8.034-8.482,11.547c-1.247,3.5-1.532,6.16-4.072,8.706
			c-2.544,2.545-6.678,9.162-6.678,15.161c0,6.001,0,13.353,3.169,13.353c3.168,0,7.581-1.695,9.275-4.299
			c1.702-2.603,8.431-7.866,10.073-9.507c1.643-1.638-1.471,4.528,1.128,3.171c2.606-1.36,5.21-2.49,5.21-2.49
			s-3.904,10.467-2.829,11.54c1.076,1.073,2.657-6.843,4.528-8.714c1.863-1.866,4.183-8.258,4.183-9.503s5.207,0.68,5.207-1.245
			c0-1.923-3.34-1.98-0.853-2.77c2.491-0.792,3.908-2.095,3.908-2.095s12.563-3.623,14.483-3.623c0,0,1.581-0.903,0.905-1.583
			c0,0,30.548-5.767,35.53-10.746c0,0,13.126,2.038,18.784-1.587c5.657-3.621,19.233-14.252,19.233-33.945l-1.356-2.257
			c0,0,5.204-24.896,5.204-35.533c0-10.64,0-16.976,0-16.976s12.106-3.961,19.575-3.961c7.467,0,17.254-2.206,19.577-4.528
			c2.315-2.322,4.636-2.714,8.597-2.714c3.959,0,9.85-5.096,8.26-10.524c-1.581-5.432-4.411-8.262-7.807-9.163
			c-3.39-0.907-13.914-4.639-13.914-4.639s-1.02-1.585-1.02-3.28c0-1.702,0.566-3.512-2.604-2.946
			c-3.166,0.567-6.224,3.736-8.825,2.038c-2.603-1.699-1.808-1.699-7.467-2.261c-5.658-0.568-10.302-0.794-11.207-1.699
			c-0.9-0.908,3.964-19.347,4.979-23.083c1.021-3.734,2.147-8.373,2.147-8.373s6.679,5.996,11.547,6.672
			c4.866,0.682,19.803,2.943,19.803,2.943s-0.285,0.965,0.45,1.701c0.737,0.734,4.641,2.03,5.546-0.794c0,0,4.069,1.356,8.03-3.62
			c3.963-4.981,14.485-19.915,18.446-26.822c3.963-6.897,4.19-9.273,6.794-10.178c2.599-0.908,6.728-4.359,8.482-6.113
			c1.753-1.753,1.865-3.226,3.848-5.205c1.979-1.98,5.278-5.311,5.551-5.749c0.569-0.916,0.217-1.097-0.229-1.548
			c-0.457-0.451-5.253,3.167-6.54,3.789l5.898-7.842c0,0,1.534-1.701,0.472-2.287c-1.113-0.612-2.913,1.163-4.586,2.945
			c-6.126,6.531-3.183,1.635-1.821-0.284c1.354-1.927,3.485-6.184,3.319-6.639c-0.395-1.094-1.663-0.301-2.073,0.042
			c-0.98,0.819-3.785,4.333-4.686,5.751c-0.907,1.411-3.156,2.548-2.148,0.849c2.27-3.821,3.183-6.725,3.432-7.804
			c0.166-0.716,0.472-1.646-0.125-2.239c-0.594-0.594-2.293,0.142-2.969,1.78c-0.68,1.64-4.584,10.299-7.132,11.998
			c-2.548,1.698-2.548,1.07-2.548,0c0-1.076-0.165-3.453-1.354-4.643c-1.188-1.188-3.933-1.837-4.579-1.188
			c-0.656,0.649-1.319,1.881-0.656,2.548c0.667,0.667,2.293,2.715,2.293,4.182c0,1.477-1.637,5.264-1.637,7.246
			c0,1.982-1.079,4.639-2.548,6.793c-1.475,2.143-5.038,5.878-5.998,7.973c-0.963,2.094-2.996,5.6-5.939,7.812
			c-2.945,2.201-10.808,8.542-11.202,11.028c0,0-2.548-1.811-3.509,0.68c0,0-4.643-5.486-10.526-7.414
			c-5.887-1.922-8.2-1.415-10.015-2.487c-1.809-1.075-6.137-5.799-7.633-7.299c-1.503-1.5-8.885-6.393-14.486-4.301
			c0,0-2.433-0.567-3.393-0.567c0,0,3.108-4.013,3.108-7.183c0-3.164-0.907-3.621-0.45-5.205c0.45-1.582-0.283-9.39-2.491-12.617
			c-2.203-3.222-3.336-6.899-6.959-7.75c-3.62-0.848-13.293-0.448-15.786,2.72c-2.488,3.166-4.751,8.488-4.751,8.488
			s-1.921-0.397-4.188-4.021c-2.261-3.624-10.181-26.027-13.013-28.853c0,0,1.135-6.223-3.278-6.223c0,0-2.829-3.623-4.642-7.247
			c-1.811-3.619-16.011-23.364-19.804-27.155c-3.787-3.79-9.165-7.354-7.916-10.862c1.243-3.51,2.623-8.163,1.715-9.521
			c-0.905-1.358-3.853-0.558-3.853,1.023c0,0-1.655-2.986-0.637-5.757c1.02-2.775,3.535-7.497,4.923-8.889
			c1.386-1.384,0.423-1.89,0-2.316c-0.425-0.425-6.191,0.111-8.625,6.903c0,0-0.935-6.392,3.364-9.733c0,0,2.32-5.373-1.811-3.735
			c-4.129,1.643-4.752,8.546-4.98,9.959c0,0,0-8.032,1.132-10.068c0,0-0.225-1.47-1.472-1.47c-1.242,0-2.434,1.75-2.201,4.07
			c0,0-2.213,0.962-1.419,5.884c0.903,5.614,0.823,8.205,0.823,10.393c0,2.318,0.479,5.735,1.555,7.995
			c1.077,2.265,2.939,5.656,2.939,7.41c0,1.756,1.868,4.471,2.996,7.129c1.137,2.662,5.096,12.166,5.888,15.501
			c0.791,3.343,3.056,5.942,4.75,8.545c1.697,2.601,3.62,7.639,7.639,13.01c4.019,5.378,5.631,6.987,5.631,6.987
			s-2.12,3.09,1.558,5.634c0,0,6.562,24.101,8.487,27.49c1.921,3.397,2.599,6.567,3.389,8.945
			c0.795,2.375,5.436,10.635,5.436,13.238C450.895,252.998,451.348,258.766,451.348,258.766z"/>
		<path d="M399.634,99.954c0-12.53,10.161-22.685,22.688-22.685c12.532,0,22.688,10.155,22.688,22.685
			c0,12.529-10.155,22.688-22.688,22.688C409.795,122.642,399.634,112.483,399.634,99.954z"/>
	</g>
	<path fill="#FFFFFF" d="M540.577,269.3c0,0,1.283-1.782,2.374-1.486c1.088,0.297,1.188,2.081,1.576,3.957
		c0.399,1.875-0.593,3.855,0.1,6.821c0.693,2.966,1.586,5.243,0.693,6.231c-0.889,0.988-1.977,1.086-3.262,1.086
		c-1.288,0-1.481-1.975-1.386-4.941C540.771,277.998,539.39,269.79,540.577,269.3z"/>
	<path fill="#FFFFFF" d="M484.507,245.467c2.739,0.726,1.881-0.991,4.647,1.287c2.769,2.271,3.659,0.593,4.847,1.382
		c1.188,0.791,2.374-0.79,4.254,0.593c1.877,1.386,8.402,5.241,9.59,7.515c1.186,2.273,1.979,5.64,1.186,11.968
		c-0.79,6.327-1.681,13.643-3.559,19.775c-1.881,6.131-3.755,12.362-4.055,14.239c-0.298,1.881-1.088,3.46-1.088,3.46
		s-7.219-0.197-9.885-0.197c-2.674,0-3.267,0.297-4.157-1.187c-0.888-1.482-1.484-1.879-2.767-1.581
		c-1.287,0.297-6.43-1.387-8.504-0.495c-2.075,0.89-5.64-1.486-8.406,0.099c-2.769,1.58-5.244,2.472-7.514,4.253
		c-2.275,1.776-3.363,3.656-3.958,4.842c-0.593,1.188-1.679,1.188-0.693-1.084c0.99-2.275,2.376-3.462,1.388-7.614
		c-0.99-4.154-2.769-6.332-2.769-10.085c0-3.758-2.278-5.44-3.361-7.321c-1.091-1.877-2.181-6.426-1.483-8.302
		c0.69-1.88,4.942-7.418,2.669-7.613c-2.276-0.201-5.538,2.47-4.057-0.396c1.483-2.872,4.847-11.968,4.847-10.285
		c0,1.678,0.891,7.615,2.472,6.229c1.583-1.387,7.713-6.823,9.196-8.11c1.485-1.286,7.714-5.042,9.595-9.693
		c1.878-4.645,3.163-6.623,3.163-7.709c0-1.09,1.677,0,2.667,1.185C479.758,241.808,481.146,244.574,484.507,245.467z"/>
	<path d="M464.435,257.728c0,0-2.369,6.922,0.893,16.017c3.262,9.1,4.94,11.371,4.646,13.945c-0.294,2.571,0.692,4.248,3.164,7.021
		c2.473,2.766,4.449,6.127,5.24,6.721c0.792,0.597-0.099,1.189-2.47,0.991c-2.378-0.197-2.866-2.074-6.43-1.286
		c-3.562,0.791-3.955,1.979-5.141-0.788c-1.188-2.772-1.287-4.45-2.673-5.143c-1.381-0.696-5.436-2.772-7.219-5.837
		c-1.778-3.063-4.449-4.055-4.645-7.516c-0.195-3.459-1.979-4.249,0-7.415c1.976-3.166,2.076-4.746,1.48-4.746
		c-0.588,0-3.659,0.691-3.062-1.879c0.591-2.57,2.964-5.534,2.964-5.534s-3.361,7.021-1.778,6.423
		c1.581-0.592,4.055-1.681,6.03-4.548C457.414,261.289,465.224,255.155,464.435,257.728z"/>
	<path fill="#FFFFFF" d="M455.338,265.739c0,0-2.074,2.964,0.198,5.041c2.271,2.077,1.186,3.857,0.692,6.525
		c-0.495,2.671,2.667,3.959,3.262,7.118c0.595,3.166,0.893,4.946,3.164,7.419c2.275,2.473,4.154,4.649,5.537,6.229
		c1.384,1.585,2.869,3.758,3.857,3.758c0.992,0,3.858,1.683,2.968,0.397c-0.895-1.285-1.685-3.855-5.242-6.822
		c-3.561-2.97-4.551-4.749-5.933-7.319c-1.385-2.572-3.856-5.637-3.657-8.502c0.198-2.869-0.1-8.996-1.188-9.889
		c-1.086-0.888-2.769-0.99-1.583-2.969C458.6,264.749,457.808,261.679,455.338,265.739z"/>
	<path d="M484.507,301.534c0,0-13.646-40.545-10.085-51.42C474.422,250.114,470.86,266.333,484.507,301.534z"/>
	<path d="M491.3,304.963c0,0-9.23-16.482-2.507-23.207C488.793,281.756,480.486,286.765,491.3,304.963z"/>
	<path d="M494.726,304.433c0,0-1.054-18.06-3.294-18.458C491.432,285.975,494.987,301.534,494.726,304.433z"/>
	<path d="M499.343,304.963c0,0,7.907-27.56,3.166-34.678C502.509,270.285,506.591,272.789,499.343,304.963z"/>
	<path d="M507.512,260.793c0,0-3.556-9.361-13.184-12.525C494.328,248.268,505.671,254.73,507.512,260.793z"/>
	<path d="M478.643,242.069c0,0,6.193,4.881,5.273,13.453C483.916,255.522,483.65,245.897,478.643,242.069z"/>
	<path d="M477.188,242.337c0,0-1.188,6.922-11.47,14.365C465.719,256.702,475.609,252.089,477.188,242.337z"/>
	<path fill="#FFFFFF" d="M432.497,194.343c0,0-0.136,3.694,1.449,4.349c1.581,0.659,6.063-0.524,8.836-2.108
		c2.767-1.581,6.328-4.351,6.589-6.063c0.264-1.716-1.578-3.828-3.164-3.033c-1.581,0.791-3.034,1.58-5.271,3.692
		C438.693,193.288,433.681,194.343,432.497,194.343z"/>
	<path fill="#FFFFFF" d="M463.247,305.092c-1.953,2.198-7.314,4.154-7.514,5.738c-0.197,1.58-6.724,1.183,3.363,4.744
		c10.083,3.563,8.502-0.2,11.071,2.375c2.571,2.569,10.482,3.757,16.417,3.757c5.933,0,7.121-4.944,11.67-1.188
		c4.546,3.759,9.293-0.195,10.678,1.583c1.386,1.778,2.767,2.769,2.767,2.769s3.362-2.273,5.442-2.575
		c2.073-0.293,5.533-1.084,5.533-1.084s-2.472-7.118-0.986-8.011c1.481-0.888,3.562-0.593,5.735-1.579
		c2.178-0.989,3.757-1.286,3.757-1.583s-0.986-1.189-3.066-0.396c-2.076,0.792-5.24,2.272-6.523,0.792
		c-1.285-1.483-2.87-2.18-4.449-1.287c-1.585,0.891-4.749,1.287-6.53,0c-1.778-1.283-5.535-2.274-7.811-2.079
		c-2.274,0.203-8.01-0.888-10.183-0.294c-2.174,0.594-2.771,1.285-4.548-0.989c-1.783-2.274-6.035-3.164-7.915-2.867
		c-1.877,0.296-3.659-0.495-6.626-0.197C470.565,303.018,466.411,301.534,463.247,305.092z"/>
	<path d="M464.734,304.992c0,0,5.04,2.181,7.516,4.55c2.47,2.373,4.35,3.263,6.424,1.877c2.076-1.381,1.977-2.074,4.452-0.787
		c2.469,1.283,8.306,2.769,9.787,1.976c1.485-0.793,4.154-2.569,6.229-1.579c2.078,0.984,6.132,1.479,9.198,1.877
		c3.064,0.395,12.36,1.978,12.36,1.978l1.084-1.78c0,0-6.128,0.098-9.292-0.891c-3.164-0.987-13.351-3.559-15.922-3.162
		c-2.569,0.395-3.558,2.472-5.538,1.68c-1.976-0.79-7.809-4.25-10.582-3.262c-2.767,0.985-3.459,3.561-6.128,0.985
		C471.649,305.884,466.709,302.028,464.734,304.992z"/>
	<path fill="#FFFFFF" d="M510.909,325.761c0.225,0.45-6.033,4.747-13.544,8.302c-7.519,3.563-12.563,6.63-12.563,6.63
		s5.739-3.412,12.362-6.923C503.791,330.259,510.662,325.264,510.909,325.761z"/>
	<path fill="#FFFFFF" d="M523.567,321.211c0,0,9.689-0.79,13.744,3.066C537.312,324.277,531.676,321.111,523.567,321.211z"/>
	<path fill="#FFFFFF" d="M500.924,324.277c0.621-0.527-17.205,16.213-30.259,16.415
		C470.665,340.692,485.694,337.131,500.924,324.277z"/>
	<path fill="#FFFFFF" d="M488.858,322.895c0,0-17.601,10.875-31.051,9.887C457.808,332.781,465.125,334.167,488.858,322.895z"/>
	<path fill="#FFFFFF" d="M484.046,342.142c0,1.713,0.396,5.011,1.715,6.328c1.317,1.317,3.166,3.294,2.376,4.352
		c-0.793,1.054-2.115,0.659-4.75,1.188c-2.637,0.524-5.405,2.505-6.856,3.952c-1.449,1.447-2.108,1.447-2.108,1.447
		s-1.188-3.424-1.317-5.011c-0.132-1.577-0.79-3.952-2.244-4.481c-1.449-0.522-3.161,0-3.161,0s0.524-2.503,4.485-3.424
		C476.137,345.567,484.046,339.766,484.046,342.142z"/>
	<path fill="#FFFFFF" d="M494.791,389.145c0,0-1.186-6.723-7.315-4.747c-6.133,1.977-7.911,3.164-10.683,0.793
		c-2.767-2.38-12.653-8.309-12.653-8.309s13.544,9.59,15.618,8.901c2.082-0.694,8.605-3.361,11.574-1.982
		C494.297,385.19,495.586,387.957,494.791,389.145z"/>
	<path fill="#FFFFFF" d="M471.556,401.072c1.581-1.386,3.559-0.394,4.843-0.788c1.285-0.394,2.87-0.394,4.449,1.09
		c1.585,1.479,2.08,1.581,4.847,1.383c2.491-0.181,4.711,2.434,5.016,3.258c0.01-0.02,0.021-0.04,0.029-0.062
		c0.155-0.41-2.278-3.657-5.045-3.459c-2.767,0.197-3.262,0.098-4.847-1.391c-1.579-1.479-3.164-1.479-4.449-1.083
		c-1.284,0.393-3.262-0.591-4.843,0.792c-1.583,1.38-4.452,4.154-4.452,4.154s0.081,0.016,0.222,0.047
		C468.023,404.347,470.233,402.23,471.556,401.072z"/>
	<path fill="#FFFFFF" d="M416.971,438.286c0,0-0.495,4.845,0.393,7.915c0.895,3.066,0.498,5.141,1.586,5.631
		c1.09,0.5,0.197,0.795-1.286,0.795c-1.48,0-8.802,0.893-11.372,2.671s-4.45,2.369-4.45,2.369s-2.569-6.228-2.868-7.214
		c-0.296-0.99-1.484,0.197-1.684-1.686c-0.197-1.876-0.197-6.623,1.982-6.425c2.173,0.197,7.515-1.483,10.381-2.174
		C412.523,439.48,416.873,436.414,416.971,438.286z"/>
</g>
</svg>
